<svg width="500" height="300" xmlns="http://www.w3.org/2000/svg"><rect x="0" y="0" width="500" height="300" fill="#FFF"/><rect x="25" y="25" width="450" height="250" fill="#F6F6F6"/><line x1="25" y1="25" x2="25" y2="275" stroke="#666" stroke-width="1"/><line x1="25" y1="275" x2="475" y2="275" stroke="#666" stroke-width="1"/><text x="25.0" y="285" text-anchor="middle" font-size="8" fill="#333">Jan</text><text x="175.0" y="285" text-anchor="middle" font-size="8" fill="#333">Mar</text><text x="325.0" y="285" text-anchor="middle" font-size="8" fill="#333">May</text><text x="475.0" y="285" text-anchor="middle" font-size="8" fill="#333">Jul</text><text x="22" y="278.0" text-anchor="end" font-size="8" fill="#333">7.3</text><text x="22" y="194.66666666666669" text-anchor="end" font-size="8" fill="#333">11.2</text><text x="22" y="111.33333333333337" text-anchor="end" font-size="8" fill="#333">15.1</text><text x="22" y="28.0" text-anchor="end" font-size="8" fill="#333">19.0</text><path d="M 25.0,206.3 L 100.0,168.1 L 175.0,240.3 L 250.0,108.6 L 325.0,195.7 L 400.0,36.4 L 475.0,127.7" stroke="#6A8" stroke-width="2.5" fill="none"/><path d="M 25.0,263.6 L 100.0,227.5 L 175.0,191.4 L 250.0,216.9 L 325.0,142.6 L 400.0,221.2 L 475.0,89.5" stroke="#F95" stroke-width="2.5" fill="none"/><text x="250.0" y="295" text-anchor="middle" font-size="8" fill="#333">Month</text><text x="5" y="150.0" text-anchor="middle" transform="rotate(-90 5,150.0)" font-size="8" fill="#333">Value</text><text x="250.0" y="15" text-anchor="middle" font-size="10" font-weight="bold" fill="#333">Monthly Performance Trends</text><rect x="430" y="20" width="7" height="7" fill="#6A8"/><text x="440" y="26" font-size="8" fill="#333">Series A</text><rect x="430" y="32" width="7" height="7" fill="#F95"/><text x="440" y="38" font-size="8" fill="#333">Series B</text></svg>