<svg width="420" height="250" xmlns="http://www.w3.org/2000/svg"><rect x="0" y="0" width="420" height="250" fill="#FFF"/><rect x="25" y="25" width="370" height="200" fill="#F6F6F6"/><line x1="25" y1="25" x2="25" y2="225" stroke="#666" stroke-width="1"/><line x1="25" y1="225" x2="395" y2="225" stroke="#666" stroke-width="1"/><text x="25.0" y="235" text-anchor="middle" font-size="8" fill="#333">Jan</text><text x="173.0" y="235" text-anchor="middle" font-size="8" fill="#333">Mar</text><text x="321.0" y="235" text-anchor="middle" font-size="8" fill="#333">May</text><text x="22" y="228.0" text-anchor="end" font-size="8" fill="#333">4.0</text><text x="22" y="161.33333333333334" text-anchor="end" font-size="8" fill="#333">11.3</text><text x="22" y="94.66666666666669" text-anchor="end" font-size="8" fill="#333">18.7</text><text x="22" y="28.0" text-anchor="end" font-size="8" fill="#333">26.0</text><path d="M 25.0,170.5 L 99.0,125.0 L 173.0,197.7 L 247.0,79.5 L 321.0,152.3 L 395.0,34.1" stroke="#6A8" stroke-width="2.0" fill="none"/><path d="M 25.0,215.9 L 99.0,188.6 L 173.0,152.3 L 247.0,97.7 L 321.0,170.5 L 395.0,79.5" stroke="#F95" stroke-width="2.0" fill="none"/><text x="210.0" y="245" text-anchor="middle" font-size="8" fill="#333">Month</text><text x="5" y="125.0" text-anchor="middle" transform="rotate(-90 5,125.0)" font-size="8" fill="#333">Sales (Units)</text><text x="210.0" y="15" text-anchor="middle" font-size="10" font-weight="bold" fill="#333">Monthly Sales Performance</text><rect x="350" y="20" width="7" height="7" fill="#6A8"/><text x="360" y="26" font-size="8" fill="#333">Product A</text><rect x="350" y="32" width="7" height="7" fill="#F95"/><text x="360" y="38" font-size="8" fill="#333">Product B</text></svg>